Coordinates
version=1
nRows=5
nColumns=46
inDegrees=yes

Units are S.I. units (second, meters, Newtons, ...)
Angles are in degrees.

endheader
time	pelvis_tilt	pelvis_list	pelvis_rotation	pelvis_tx	pelvis_ty	pelvis_tz	bb_angle	bb_tx	bb_ty	bb_tz	hip_flexion_r	hip_adduction_r	hip_rotation_r	knee_angle_r	knee_angle_r_beta	ankle_angle_r	subtalar_angle_r	mtp_angle_r	crank_angle_r	hip_flexion_l	hip_adduction_l	hip_rotation_l	knee_angle_l	knee_angle_l_beta	ankle_angle_l	subtalar_angle_l	mtp_angle_l	crank_angle_l	lumbar_extension	lumbar_bending	lumbar_rotation	arm_flex_r	arm_add_r	arm_rot_r	elbow_flex_r	pro_sup_r	wrist_flex_r	wrist_dev_r	arm_flex_l	arm_add_l	arm_rot_l	elbow_flex_l	pro_sup_l	wrist_flex_l	wrist_dev_l
      2.50500000	    -18.88661394	     -6.18504698	     -0.13524166	      0.27061186	      1.13947943	     -0.22939308	      0.00000000	      0.50000000	      0.00000000	      0.25000000	     71.70970948	     -1.19167408	     -4.81403537	    108.32007307	      1.89054192	     -6.84404098	    -13.50806854	      0.00000000	      0.00000000	     40.57563126	     -8.93757550	      5.24186471	     29.42001564	      0.51347614	    -22.12156783	    -14.00285014	      0.00000000	      0.00000000	    -55.18506033	      3.97378612	      8.83113111	     81.67049208	    -12.30956486	     54.93575217	     24.83672143	     42.57448486	      0.00000000	      0.00000000	     79.14178900	     -8.19498459	     46.60473319	     32.93847257	     41.79952409	      0.00000000	      0.00000000
      2.51000000	    -18.94493447	     -6.52721226	     -0.45153463	      0.27147316	      1.14065948	     -0.23012359	      0.00000000	      0.50000000	      0.00000000	      0.25000000	     72.53336568	     -0.85282934	     -4.87360159	    108.90657666	      1.90077834	     -5.66633821	    -12.57815988	      0.00000000	      0.00000000	     39.22715163	     -9.58525458	      4.38464526	     27.60540952	      0.48180529	    -23.41576731	    -13.56746332	      0.00000000	      0.00000000	    -55.32651908	      4.01911185	      9.20192570	     81.88128719	    -12.15273141	     55.31313913	     24.24103458	     42.56530025	      0.00000000	      0.00000000	     79.18433615	     -8.15438821	     46.80251776	     32.91942103	     41.84852137	      0.00000000	      0.00000000
      2.51500000	    -19.32347037	     -7.15046813	     -0.58136727	      0.27201898	      1.14140155	     -0.23115009	      0.00000000	      0.50000000	      0.00000000	      0.25000000	     73.66717643	     -0.60679018	     -5.34964258	    109.35089591	      1.90853317	     -5.07239949	    -12.58373297	      0.00000000	      0.00000000	     38.44605931	    -10.33552133	      3.91416106	     26.04394169	      0.45455253	    -24.42022174	    -12.71802791	      0.00000000	      0.00000000	    -55.15649999	      4.50633971	      9.57495741	     82.03018094	    -12.00949583	     55.43588083	     24.16949734	     42.57995504	      0.00000000	      0.00000000	     79.16606123	     -8.23563741	     46.86066112	     32.82688699	     41.85066073	      0.00000000	      0.00000000
      2.52000000	    -19.69467423	     -7.74514802	     -0.75012401	      0.27264201	      1.14240141	     -0.23224699	      0.00000000	      0.50000000	      0.00000000	      0.25000000	     74.74219859	     -0.38374454	     -5.81299748	    109.67212296	      1.91413964	     -4.41563960	    -12.47265345	      0.00000000	      0.00000000	     37.65856121	    -11.10058924	      3.22993861	     24.50893793	      0.42776166	    -25.47491922	    -11.85889690	      0.00000000	      0.00000000	    -55.05416100	      4.95168939	      9.98046407	     82.17336266	    -11.91588196	     55.52413542	     24.11532712	     42.59053728	      0.00000000	      0.00000000	     79.17725039	     -8.28649875	     46.91178292	     32.73141796	     41.84916216	      0.00000000	      0.00000000
      2.52500000	    -20.03649047	     -8.27767069	     -0.94764938	      0.27328902	      1.14362572	     -0.23336129	      0.00000000	      0.50000000	      0.00000000	      0.25000000	     75.74729878	     -0.18748716	     -6.20944432	    109.89325327	      1.91799910	     -3.81188358	    -12.18316328	      0.00000000	      0.00000000	     36.85467164	    -11.82881675	      2.42554732	     23.04142057	      0.40214865	    -26.55296665	    -10.92705593	      0.00000000	      0.00000000	    -54.97383088	      5.32606165	     10.37988779	     82.28401436	    -11.88074447	     55.58878347	     24.07296167	     42.60037054	      0.00000000	      0.00000000	     79.18527183	     -8.31884130	     46.97064377	     32.61494705	     41.84506708	      0.00000000	      0.00000000
